<svg id="icon4" xmlns="http://www.w3.org/2000/svg" viewBox="0 0 171.78 224">
  <title>icon4</title>
  <g>
    <ellipse cx="123.5" cy="71.02" rx="4.8" ry="5.23"/>
    <ellipse cx="51.5" cy="71.02" rx="4.8" ry="5.23"/>
    <path d="M203.37,144a65.67,65.67,0,0,0-16.77-15.15q2.52-10,4.4-20.85a282.37,282.37,0,0,0,4-41.83A461.09,461.09,0,0,0,132,61V30a3.8,3.8,0,0,0-.15-1A8.94,8.94,0,0,0,137,21a9.51,9.51,0,0,0-19,0,9,9,0,0,0,6.06,8.38A4.34,4.34,0,0,0,124,30V61a462.48,462.48,0,0,0-66,5c.61,8.68,1.59,17.69,3,27a335.62,335.62,0,0,0,6.84,33.43c-8,4.37-16,11-20.84,17.57-10.3,13.88-9.91,31.58-1,33.78,5.48,1.36,13.57-3.75,25-11,2.8-1.76,5.46-3.45,7.94-5.12A363.27,363.27,0,0,0,98,204h58a295.29,295.29,0,0,0,19.25-39.79q2,1.29,4.12,2.61c11.42,7.21,19.51,12.32,25,11C213.28,175.58,213.67,157.88,203.37,144ZM102.3,151.67a7.11,7.11,0,0,1-12.11-4.37,7.12,7.12,0,0,1-4.37-12.12,7.11,7.11,0,0,1,12.11,4.38,7.11,7.11,0,0,1,4.37,12.11ZM171,116l-87,1c-2.3-2.58-15.5-17.87-11.46-35.37A30.59,30.59,0,0,1,76,73q26.88-1.06,55.81-1,23.25.09,45.19,1a30.06,30.06,0,0,1,5.61,13.14C185.18,102.42,172.46,114.64,171,116Z" transform="translate(-39.29 -12)"/>
    <ellipse cx="87.71" cy="219" rx="38" ry="5"/>
  </g>
</svg>
