<svg id="icon1" xmlns="http://www.w3.org/2000/svg" viewBox="0 0 176 201">
  <title>icon1</title>
  <g>
    <ellipse cx="115.19" cy="67" rx="4.81" ry="5.25"/>
    <ellipse cx="69.81" cy="67" rx="4.81" ry="5.25"/>
    <path d="M209.59,141c-3.5-9.52-13.8-17.4-27.24-20.12.24-1.61.43-3.24.53-4.89.07-1.16.12-2.32.12-3.5a56.49,56.49,0,0,0-52.24-56.32A50.63,50.63,0,0,0,132,44.5a57.36,57.36,0,0,0-.49-7.58,10,10,0,1,0-9.95-.53A57.82,57.82,0,0,0,121,44.5a50.63,50.63,0,0,0,1.24,11.68A56.49,56.49,0,0,0,70,112.5a55.9,55.9,0,0,0,.51,7.47c-16.74,1.09-30,9.95-34.1,21-5.63,15.27,7.35,29.79,8.84,31.4l7.32-6.82c-.43-.46-10.4-11.3-6.78-21.12C48.64,136.73,59.16,130.64,72,130q4.49,30.51,9,61h92l8-60.07c9.54,2.08,16.89,7.27,19.2,13.54,3.62,9.82-6.35,20.66-6.78,21.12l7.32,6.82C202.24,170.8,215.22,156.28,209.59,141Zm-123-1.2a3.57,3.57,0,1,1,3.57-3.57A3.57,3.57,0,0,1,86.57,139.81Zm8.93,0a3.57,3.57,0,1,1,3.57-3.57A3.57,3.57,0,0,1,95.5,139.81Zm8.93,0a3.57,3.57,0,1,1,3.57-3.57A3.57,3.57,0,0,1,104.43,139.81ZM125,117a75.91,75.91,0,0,1-44-15.66c2.22-20.55,21.73-36.63,45.47-36.63,24,0,43.63,16.38,45.53,37.22A76.06,76.06,0,0,1,125,117Z" transform="translate(-35 -18)"/>
    <ellipse cx="91" cy="197" rx="35" ry="4"/>
  </g>
</svg>
