<svg id="icon6" xmlns="http://www.w3.org/2000/svg" viewBox="0 0 112.18 159.64"><title>icon6</title><path d="M179.2,116.52c-1.19-3.08-2.6-6.77-4.29-10.31A87.1,87.1,0,0,0,175.5,83c-1.13-10.35-1.86-17-6.37-23.78C158,42.42,134,40.64,128.8,40.43c-0.79,0-1.41,0-1.82-.05-4.4-.08-27.76-0.37-40.16,14.88C81.26,62.1,80,69.49,78.5,78.5A74.48,74.48,0,0,0,78.33,102c-2.16,3.13-4.13,8.31-6.54,14.55-6.65,17.23,1.24,41,17.3,24.32,1.78,2.16,15.48,18.27,38.4,18.16,21.15-.1,34.17-13.94,36.26-16.24C178.11,157.54,185.86,133.75,179.2,116.52ZM127,108c-18.12,0-30-17.35-30-28.85s11.46-28.85,29.58-28.85S157,67.64,157,79.15,145.12,108,127,108Z" transform="translate(-69.43 -40.36)"/><ellipse cx="76.1" cy="35.82" rx="4.76" ry="5.19"/><ellipse cx="40" cy="35.82" rx="4.76" ry="5.19"/><ellipse cx="57.57" cy="155.64" rx="30" ry="4"/><path d="M126.5,175.5c12.54-.43,20.86-7.09,24.5-10,8.59-6.87,13.68-15.91,13-16.5-0.49-.42-3.33,3.23-8.5,7a50.39,50.39,0,0,1-29,10,50.31,50.31,0,0,1-27-8c-7.1-4.69-10.35-9.52-11-9-0.94.77,4.28,12.59,15.5,20A39.54,39.54,0,0,0,126.5,175.5Z" transform="translate(-69.43 -40.36)"/></svg>