<svg id="icon3" xmlns="http://www.w3.org/2000/svg" viewBox="0 0 119 210">
  <title>icon3</title>
  <g>
    <ellipse cx="88.2" cy="78.02" rx="4.8" ry="5.23"/>
    <ellipse cx="31.8" cy="78.02" rx="4.8" ry="5.23"/>
    <path d="M172,69H158V37a3.8,3.8,0,0,0-.15-1A8.94,8.94,0,0,0,163,28a9.51,9.51,0,0,0-19,0,9,9,0,0,0,6.06,8.38A4.34,4.34,0,0,0,150,37V69H97V39a3.8,3.8,0,0,0-.15-1A8.94,8.94,0,0,0,102,30a9.51,9.51,0,0,0-19,0,9,9,0,0,0,6.06,8.38A4.34,4.34,0,0,0,89,39V69H77A12,12,0,0,0,65,81V184a12,12,0,0,0,12,12h95a12,12,0,0,0,12-12V81A12,12,0,0,0,172,69ZM85.89,169c-3.79,0-6.89-2.7-6.89-6s3.1-6,6.89-6,6.89,2.7,6.89,6S89.68,169,85.89,169Zm17.22,0c-3.79,0-6.89-2.7-6.89-6s3.1-6,6.89-6,6.89,2.7,6.89,6S106.9,169,103.11,169ZM169,114.56a12,12,0,0,1-12,12H93a12,12,0,0,1-12-12V94.44a12,12,0,0,1,12-12h64a12,12,0,0,1,12,12Z" transform="translate(-65 -19)"/>
    <ellipse cx="60" cy="206" rx="49" ry="4"/>
  </g>
</svg>
