<svg id="icon5" xmlns="http://www.w3.org/2000/svg" viewBox="0 0 150 238">
  <title>icon5</title>
  <g>
    <ellipse cx="95.8" cy="86.02" rx="4.8" ry="5.23"/>
    <ellipse cx="54.8" cy="86.02" rx="4.8" ry="5.23"/>
    <path d="M179.58,145.94c.27-3.26.42-6.57.42-9.94,0-43.29-22.51-78.72-51-81.76,0-.08,0-.16,0-.24V21a3.8,3.8,0,0,0-.15-1A8.94,8.94,0,0,0,134,12a9.51,9.51,0,0,0-19,0,9,9,0,0,0,6.06,8.38A4.34,4.34,0,0,0,121,21V54c0,.08,0,.16,0,.24-28.51,3-51,38.47-51,81.76,0,4.11.21,8.14.6,12.09L50,185H80.9c10,20,26.05,33,44.1,33s34.08-13,44.1-33H200ZM91.44,158,83.51,150l7.93-7.92L99.37,150Zm16.63-.76-7.92-7.92,7.92-7.93,7.93,7.93ZM124.5,126C101,126,82,113.69,82,98.5S101,71,124.5,71,167,83.31,167,98.5,148,126,124.5,126Z" transform="translate(-50 -3)"/>
    <ellipse cx="75" cy="233" rx="42" ry="5"/>
  </g>
</svg>
