<svg aria-hidden="true" style="position: absolute; width: 0; height: 0; overflow: hidden;" version="1.1" xmlns="http://www.w3.org/2000/svg" xmlns:xlink="http://www.w3.org/1999/xlink">
<defs>
<symbol id="icon1" viewBox="0 0 28 32">
<title>icon1</title>
<path d="M19.104 10.667c0 0.462-0.343 0.836-0.766 0.836s-0.766-0.374-0.766-0.836c0-0.462 0.343-0.836 0.766-0.836s0.766 0.374 0.766 0.836z"></path>
<path d="M11.88 10.667c0 0.462-0.343 0.836-0.766 0.836s-0.766-0.374-0.766-0.836c0-0.462 0.343-0.836 0.766-0.836s0.766 0.374 0.766 0.836z"></path>
<path d="M27.795 19.582c-0.557-1.516-2.197-2.77-4.337-3.203 0.038-0.256 0.068-0.516 0.084-0.778 0.011-0.185 0.019-0.369 0.019-0.557-0.001-4.728-3.65-8.604-8.286-8.964l-0.031-0.002c0.126-0.533 0.198-1.146 0.198-1.775 0-0.029-0-0.058-0-0.087l0 0.004c0-0.005 0-0.010 0-0.016 0-0.42-0.028-0.833-0.083-1.238l0.005 0.047c0.522-0.268 0.873-0.804 0.873-1.421 0-0.879-0.713-1.592-1.592-1.592s-1.592 0.713-1.592 1.592c0 0.558 0.287 1.048 0.721 1.333l0.006 0.004c-0.057 0.384-0.089 0.827-0.089 1.278 0 0.005 0 0.009 0 0.014v-0.001c-0 0.025-0 0.055-0 0.085 0 0.629 0.072 1.242 0.209 1.829l-0.011-0.054c-4.667 0.363-8.316 4.238-8.317 8.966v0c0 0.42 0.030 0.832 0.087 1.236l-0.005-0.047c-2.665 0.174-4.776 1.584-5.429 3.343-0.896 2.431 1.17 4.743 1.407 4.999l1.165-1.086c-0.068-0.073-1.656-1.799-1.079-3.362 0.454-1.226 2.129-2.195 4.173-2.297q0.715 4.857 1.433 9.711h14.647l1.274-9.563c1.519 0.331 2.689 1.157 3.057 2.156 0.576 1.563-1.011 3.289-1.079 3.362l1.165 1.086c0.239-0.256 2.305-2.568 1.409-5.001zM8.213 19.391c-0.314 0-0.568-0.254-0.568-0.568s0.254-0.568 0.568-0.568c0.314 0 0.568 0.254 0.568 0.568v0c0 0 0 0.001 0 0.002 0 0.314-0.254 0.568-0.568 0.568-0.001 0-0.002 0-0.003 0h0zM9.635 19.391c-0.314 0-0.568-0.254-0.568-0.568s0.254-0.568 0.568-0.568c0.314 0 0.568 0.254 0.568 0.568v0c0 0 0 0.001 0 0.002 0 0.314-0.254 0.568-0.568 0.568-0.001 0-0.002 0-0.003 0h0zM11.057 19.391c-0.314 0-0.568-0.254-0.568-0.568s0.254-0.568 0.568-0.568c0.314 0 0.568 0.254 0.568 0.568v0c0 0 0 0.001 0 0.002 0 0.314-0.254 0.568-0.568 0.568-0.001 0-0.002 0-0.003 0h0zM14.328 15.761c-2.656-0.080-5.082-1.005-7.033-2.514l0.028 0.021c0.353-3.272 3.46-5.832 7.239-5.832 3.821 0 6.946 2.608 7.249 5.926-1.993 1.5-4.511 2.402-7.239 2.402-0.086 0-0.171-0.001-0.257-0.003l0.013 0z"></path>
<path d="M20.060 31.363c0 0.352-2.495 0.637-5.572 0.637s-5.572-0.285-5.572-0.637c0-0.352 2.495-0.637 5.572-0.637s5.572 0.285 5.572 0.637z"></path>
</symbol>
<symbol id="icon2" viewBox="0 0 24 32">
<title>icon2</title>
<path d="M16.895 5.177c0 0.575-0.427 1.040-0.954 1.040s-0.954-0.466-0.954-1.040c0-0.575 0.427-1.040 0.954-1.040s0.954 0.466 0.954 1.040z"></path>
<path d="M9.659 5.177c0 0.575-0.427 1.040-0.954 1.040s-0.954-0.466-0.954-1.040c0-0.575 0.427-1.040 0.954-1.040s0.954 0.466 0.954 1.040z"></path>
<path d="M22.69 15.267c-0.237-0.617-0.519-1.357-0.86-2.067 0.567-2.89 1.048-6.46-1.159-9.421-2.736-3.668-7.643-3.76-8.444-3.776-0.984-0.018-5.36-0.12-8.050 2.983-2.419 2.786-2.205 6.44-1.704 9.364-0.461 0.817-0.902 1.779-1.265 2.778l-0.044 0.138c-1.335 3.454-1.603 7.817-0.345 8.18 0.212 0.060 0.601 0.042 3.808-3.305 1.603 3.965 4.143 7.889 7.595 7.889 3.179 0 5.696-3.632 7.37-7.504 2.876 2.962 3.237 2.979 3.44 2.92 1.271-0.363 0.992-4.726-0.343-8.18zM12.143 10.341c-3.632 0-6.576-1.868-6.576-4.173s2.944-4.175 6.576-4.175 6.578 1.868 6.578 4.175-2.944 4.173-6.578 4.173zM16.891 15.305l-1.804 0.898 1.85-2.205 1.966 2.345z"></path>
<path d="M18.24 31.198c0 0.443-2.692 0.802-6.013 0.802s-6.013-0.359-6.013-0.802c0-0.443 2.692-0.802 6.013-0.802s6.013 0.359 6.013 0.802z"></path>
</symbol>
<symbol id="icon3" viewBox="0 0 18 32">
<title>icon3</title>
<path d="M14.171 11.889c0 0.44-0.327 0.797-0.731 0.797s-0.731-0.357-0.731-0.797c0-0.44 0.327-0.797 0.731-0.797s0.731 0.357 0.731 0.797z"></path>
<path d="M5.577 11.889c0 0.44-0.327 0.797-0.731 0.797s-0.731-0.357-0.731-0.797c0-0.44 0.327-0.797 0.731-0.797s0.731 0.357 0.731 0.797z"></path>
<path d="M16.305 7.619h-2.133v-4.876c-0.001-0.055-0.009-0.107-0.024-0.156l0.001 0.004c0.463-0.22 0.779-0.682 0.785-1.218v-0.001c-0.037-0.771-0.671-1.383-1.448-1.383s-1.411 0.611-1.447 1.379l-0 0.003c0.009 0.589 0.387 1.088 0.914 1.274l0.010 0.003c-0.005 0.028-0.008 0.060-0.009 0.094l-0 0.001v4.876h-8.076v-4.571c-0.001-0.055-0.009-0.107-0.024-0.156l0.001 0.004c0.463-0.22 0.779-0.682 0.785-1.218v-0.001c-0.037-0.771-0.671-1.383-1.448-1.383s-1.411 0.611-1.447 1.379l-0 0.003c0.009 0.589 0.387 1.088 0.914 1.274l0.010 0.003c-0.005 0.028-0.008 0.060-0.009 0.094l-0 0.001v4.571h-1.829c-1.010 0-1.829 0.819-1.829 1.829v0 15.695c0 1.010 0.819 1.829 1.829 1.829v0h14.476c1.010 0 1.829-0.819 1.829-1.829v0-15.695c0-1.010-0.819-1.829-1.829-1.829v0zM3.183 22.857c-0.578 0-1.050-0.411-1.050-0.914s0.472-0.914 1.050-0.914 1.050 0.411 1.050 0.914-0.472 0.914-1.050 0.914zM5.807 22.857c-0.578 0-1.050-0.411-1.050-0.914s0.472-0.914 1.050-0.914 1.050 0.411 1.050 0.914-0.472 0.914-1.050 0.914zM15.848 14.562c0 1.010-0.819 1.829-1.829 1.829v0h-9.752c-1.010 0-1.829-0.819-1.829-1.829v0-3.066c0-1.010 0.819-1.829 1.829-1.829v0h9.752c1.010 0 1.829 0.819 1.829 1.829v0z"></path>
<path d="M16.61 31.39c0 0.337-3.343 0.61-7.467 0.61s-7.467-0.273-7.467-0.61c0-0.337 3.343-0.61 7.467-0.61s7.467 0.273 7.467 0.61z"></path>
</symbol>
<symbol id="icon4" viewBox="0 0 25 32">
<title>icon4</title>
<path d="M18.329 10.146c0 0.413-0.307 0.747-0.686 0.747s-0.686-0.335-0.686-0.747c0-0.413 0.307-0.747 0.686-0.747s0.686 0.335 0.686 0.747z"></path>
<path d="M8.043 10.146c0 0.413-0.307 0.747-0.686 0.747s-0.686-0.335-0.686-0.747c0-0.413 0.307-0.747 0.686-0.747s0.686 0.335 0.686 0.747z"></path>
<path d="M23.44 18.857c-0.67-0.852-1.462-1.571-2.358-2.142l-0.038-0.023q0.36-1.429 0.629-2.979c0.319-1.768 0.525-3.83 0.571-5.932l0.001-0.044c-2.673-0.428-5.786-0.695-8.954-0.738l-0.046-0v-4.429c-0.001-0.051-0.009-0.1-0.022-0.147l0.001 0.004c0.434-0.207 0.73-0.64 0.736-1.142v-0.001c-0.034-0.723-0.629-1.296-1.357-1.296s-1.323 0.573-1.357 1.293l-0 0.003c0.008 0.552 0.363 1.020 0.857 1.194l0.009 0.003c-0.005 0.026-0.008 0.057-0.009 0.088l-0 0.001v4.429c-3.339 0.014-6.605 0.273-9.796 0.76l0.367-0.046c0.087 1.24 0.227 2.527 0.429 3.857 0.292 1.913 0.633 3.528 1.053 5.11l-0.075-0.335c-1.143 0.624-2.286 1.571-2.977 2.51-1.471 1.983-1.416 4.511-0.143 4.826 0.783 0.194 1.939-0.536 3.571-1.571 0.4-0.251 0.78-0.493 1.134-0.731 0.909 2.411 1.825 4.404 2.859 6.325l-0.136-0.276h8.286c0.943-1.588 1.866-3.459 2.649-5.401l0.101-0.283q0.286 0.184 0.589 0.373c1.631 1.030 2.787 1.76 3.571 1.571 1.273-0.32 1.329-2.849-0.143-4.831zM9.001 19.953c-0.184 0.184-0.438 0.298-0.719 0.298-0.528 0-0.962-0.403-1.011-0.918l-0-0.004c-0.519-0.050-0.922-0.485-0.922-1.013 0-0.281 0.114-0.535 0.297-0.719v0c0.184-0.184 0.438-0.298 0.718-0.298 0.529 0 0.963 0.404 1.011 0.919l0 0.004c0.519 0.049 0.922 0.483 0.922 1.011 0 0.281-0.114 0.535-0.298 0.719v0zM18.816 14.857l-12.429 0.143c-0.329-0.369-2.214-2.553-1.637-5.053 0.111-0.467 0.281-0.878 0.505-1.253l-0.011 0.020q3.84-0.151 7.973-0.143 3.321 0.013 6.456 0.143c0.398 0.526 0.68 1.161 0.798 1.852l0.004 0.025c0.367 2.326-1.45 4.071-1.659 4.266z"></path>
<path d="M17.959 31.286c0 0.395-2.43 0.714-5.429 0.714s-5.429-0.32-5.429-0.714c0-0.395 2.43-0.714 5.429-0.714s5.429 0.32 5.429 0.714z"></path>
</symbol>
<symbol id="icon5" viewBox="0 0 20 32">
<title>icon5</title>
<path d="M13.526 11.566c0 0.388-0.289 0.703-0.645 0.703s-0.645-0.315-0.645-0.703c0-0.388 0.289-0.703 0.645-0.703s0.645 0.315 0.645 0.703z"></path>
<path d="M8.013 11.566c0 0.388-0.289 0.703-0.645 0.703s-0.645-0.315-0.645-0.703c0-0.388 0.289-0.703 0.645-0.703s0.645 0.315 0.645 0.703z"></path>
<path d="M17.423 19.219c0.036-0.438 0.056-0.883 0.056-1.336 0-5.82-3.027-10.584-6.857-10.993 0-0.011 0-0.021 0-0.032v-4.437c-0.001-0.048-0.008-0.094-0.021-0.138l0.001 0.004c0.409-0.195 0.687-0.602 0.692-1.075v-0.001c-0.032-0.68-0.592-1.22-1.277-1.22s-1.245 0.54-1.277 1.217l-0 0.003c0.008 0.52 0.342 0.96 0.806 1.124l0.008 0.003c-0.004 0.025-0.007 0.053-0.008 0.083v4.438c0 0.011 0 0.021 0 0.032-3.833 0.403-6.857 5.172-6.857 10.993 0 0.553 0.028 1.094 0.081 1.626l-2.77 4.963h4.155c1.345 2.689 3.503 4.437 5.929 4.437s4.582-1.748 5.929-4.437h4.155zM5.572 20.84l-1.066-1.076 1.066-1.065 1.066 1.065zM7.808 20.738l-1.065-1.065 1.065-1.066 1.066 1.066zM10.017 16.538c-3.16 0-5.714-1.655-5.714-3.697s2.555-3.697 5.714-3.697 5.714 1.655 5.714 3.697-2.555 3.697-5.714 3.697z"></path>
<path d="M15.731 31.328c0 0.371-2.528 0.672-5.647 0.672s-5.647-0.301-5.647-0.672c0-0.371 2.528-0.672 5.647-0.672s5.647 0.301 5.647 0.672z"></path>
</symbol>
<symbol id="icon6" xmlns="http://www.w3.org/2000/svg" viewBox="0 0 112.18 159.64"><title>icon6</title><path d="M179.2,116.52c-1.19-3.08-2.6-6.77-4.29-10.31A87.1,87.1,0,0,0,175.5,83c-1.13-10.35-1.86-17-6.37-23.78C158,42.42,134,40.64,128.8,40.43c-0.79,0-1.41,0-1.82-.05-4.4-.08-27.76-0.37-40.16,14.88C81.26,62.1,80,69.49,78.5,78.5A74.48,74.48,0,0,0,78.33,102c-2.16,3.13-4.13,8.31-6.54,14.55-6.65,17.23,1.24,41,17.3,24.32,1.78,2.16,15.48,18.27,38.4,18.16,21.15-.1,34.17-13.94,36.26-16.24C178.11,157.54,185.86,133.75,179.2,116.52ZM127,108c-18.12,0-30-17.35-30-28.85s11.46-28.85,29.58-28.85S157,67.64,157,79.15,145.12,108,127,108Z" transform="translate(-69.43 -40.36)"/><ellipse cx="76.1" cy="35.82" rx="4.76" ry="5.19"/><ellipse cx="40" cy="35.82" rx="4.76" ry="5.19"/><ellipse cx="57.57" cy="155.64" rx="30" ry="4"/><path d="M126.5,175.5c12.54-.43,20.86-7.09,24.5-10,8.59-6.87,13.68-15.91,13-16.5-0.49-.42-3.33,3.23-8.5,7a50.39,50.39,0,0,1-29,10,50.31,50.31,0,0,1-27-8c-7.1-4.69-10.35-9.52-11-9-0.94.77,4.28,12.59,15.5,20A39.54,39.54,0,0,0,126.5,175.5Z" transform="translate(-69.43 -40.36)"/></symbol>
</defs>
</svg>
