<svg id="icon2" xmlns="http://www.w3.org/2000/svg" viewBox="0 0 119 159.65">
  <title>icon2</title>
  <g>
    <ellipse cx="79.53" cy="25.83" rx="4.76" ry="5.19"/>
    <ellipse cx="43.43" cy="25.83" rx="4.76" ry="5.19"/>
    <path d="M179.2,116.52c-1.18-3.08-2.59-6.77-4.29-10.31,2.83-14.42,5.23-32.23-5.78-47C155.48,40.91,131,40.45,127,40.37c-4.91-.09-26.74-.6-40.16,14.88-12.07,13.9-11,32.13-8.5,46.72a98.93,98.93,0,0,0-6.53,14.55c-6.66,17.23-8,39-1.72,40.81,1.06.3,3,.21,19-16.49,8,19.78,20.67,39.36,37.89,39.36,15.86,0,28.42-18.12,36.77-37.44,14.35,14.78,16.15,14.86,17.16,14.57C187.25,155.52,185.86,133.75,179.2,116.52ZM126.58,91.94c-18.12,0-32.81-9.32-32.81-20.82s14.69-20.83,32.81-20.83,32.82,9.32,32.82,20.83S144.71,91.94,126.58,91.94Zm23.69,24.77-9,4.48,9.23-11,9.81,11.7Z" transform="translate(-66 -40.35)"/>
    <ellipse cx="61" cy="155.65" rx="30" ry="4"/>
  </g>
</svg>
